# AST/ASF file generated using VICON BodyLanguage
# -----------------------------------------------
:version 1.10
:name VICON
:units
  mass 1.0
  length 0.45
  angle deg
:documentation
   .ast/.asf automatically generated from VICON data using
   VICON BodyBuilder and BodyLanguage model FoxedUp or BRILLIANT.MOD
:root
   order TX TY TZ RX RY RZ
   axis XYZ
   position 0 0 0  
   orientation 0 0 0 
:bonedata
  begin
     id 1 
     name lhipjoint
     direction 0.573633 -0.743009 0.344793 
     length 2.46257 
     axis 0 0 0  XYZ
  end
  begin
     id 2 
     name lfemur
     direction 0.34202 -0.939693 0  
     length 7.3842  
     axis 0 0 20  XYZ
    dof rx ry rz
    limits (-160.0 20.0)
           (-70.0 70.0)
           (-60.0 70.0)
  end
  begin
     id 3 
     name ltibia
     direction 0.34202 -0.939693 0   
     length 7.50407   
     axis 0 0 20   XYZ
    dof rx
    limits (-10.0 170.0)
  end
  begin
     id 4 
     name lfoot
     direction 0.110749 -0.304281 0.946123   
     length 1.95925   
     axis -90 7.62852e-016 20   XYZ
    dof rx rz
    limits (-45.0 90.0)
           (-70.0 20.0)
  end
  begin
     id 5 
     name ltoes
     direction 1.53554e-011 -4.21843e-011 1   
     length 0.978318   
     axis -90 7.62852e-016 20   XYZ
    dof rx
    limits (-90.0 20.0)
  end
  begin
     id 6 
     name rhipjoint
     direction -0.488109 -0.791693 0.367385   
     length 2.31113  
     axis 0 0 0  XYZ 
  end
  begin
     id 7 
     name rfemur
     direction -0.34202 -0.939693 0   
     length 7.40965   
     axis 0 0 -20   XYZ
    dof rx ry rz
    limits (-160.0 20.0)
           (-70.0 70.0)
           (-70.0 60.0)
  end
  begin
     id 8 
     name rtibia
     direction -0.34202 -0.939693 0   
     length 7.55548   
     axis 0 0 -20   XYZ
    dof rx
    limits (-10.0 170.0)
 end
 begin
     id 9 
     name rfoot
     direction -0.127594 -0.350561 0.927808   
     length 2.07199  
     axis -90 -7.62852e-016 -20   XYZ
    dof rx rz
    limits (-45.0 90.0)
           (-20.0 70.0)
  end
  begin
     id 10 
     name rtoes
     direction -1.53542e-011 -4.21909e-011 1   
     length 1.02667   
     axis -90 -7.62852e-016 -20   XYZ
    dof rx
    limits (-90.0 20.0)
  end
  begin
     id 11 
     name lowerback
     direction -0.0103342 0.997298 -0.0727278   
     length 2.02836   
     axis 0 0 0   XYZ
    dof rx ry rz
    limits (-20.0 45.0)
           (-30.0 30.0)
           (-30.0 30.0)
  end
  begin
     id 12 
     name upperback
     direction 0.0171146 0.999786 -0.011606   
     length 2.03179   
     axis 0 0 0   XYZ
    dof rx ry rz
    limits (-20.0 45.0)
           (-30.0 30.0)
           (-30.0 30.0)
  end
  begin
     id 13 
     name thorax
     direction 0.0216927 0.999513 0.0224343   
     length 2.03882   
     axis 0 0 0   XYZ
    dof rx ry rz
    limits (-20.0 45.0)
           (-30.0 30.0)
           (-30.0 30.0)
  end
  begin
     id 14 
     name lowerneck
     direction 0.000989287 0.993907 0.110221   
     length 1.75428   
     axis 0 0 0   XYZ
    dof rx ry rz
    limits (-20.0 45.0)
           (-30.0 30.0)
           (-30.0 30.0)
  end
  begin
     id 15 
     name upperneck
     direction -0.0172474 0.994813 -0.100253   
     length 1.77058   
     axis 0 0 0   XYZ
    dof rx ry rz
    limits (-20.0 45.0)
           (-30.0 30.0)
           (-30.0 30.0)
  end
  begin
     id 16
     name head
     direction -0.00486455 0.99894 -0.0457663  
     length 1.77427  
     axis 0 0 0   XYZ
    dof rx ry rz
    limits (-20.0 45.0)
           (-30.0 30.0)
           (-30.0 30.0)
  end
  begin
     id 17 
     name lclavicle
     direction 0.927314 0.333734 -0.169441  
     length 3.97584  
     axis 0 0 0   XYZ
    dof ry rz
    limits (-20.0 10.0)
           (0.0 20.0)
  end
  begin
     id 18 
     name lhumerus
     direction 1 -4.48965e-011 -3.25313e-028   
     length 4.76468   
     axis 180 -30 -90   XYZ
    dof rx ry rz
    limits (-60.0 90.0)
           (-90.0 90.0)
           (-90.0 90.0)
  end
  begin
     id 19
     name lradius
     direction 1 -4.48969e-011 -2.8465e-028   
     length 3.52712   
     axis -180 -30 -90   XYZ
    dof rx
    limits (-10.0 170.0)
  end
  begin
     id 20
     name lwrist
     direction 1 -4.4896e-011 -7.78665e-028   
     length 1.76356   
     axis 1.91374e-015 90 90   XYZ
    dof ry
    limits (-180.0 0.0)
 end
  begin
     id 21 
     name lhand
     direction 1 -4.48959e-011 -1.55733e-027   
     length 0.859564   
     axis 9.9371e-016 90 90   XYZ
    dof rx rz
    limits (-90.0 90.0)
           (-45.0 45.0)
  end
  begin
     id 22 
     name lfingers
     direction 1 -4.48965e-011 -3.11466e-027   
     length 0.693002   
     axis 1.98742e-015 90 90   XYZ
    dof rx
    limits (0.0 90.0)
  end
  begin
     id 23
     name lthumb
     direction 0.707107 -6.34948e-011 0.707107   
     length 0.995017   
     axis -90 45 2.85299e-015   XYZ
    dof rx rz
    limits (-45.0 45.0)
           (-45.0 45.0)
  end
  begin
     id 24 
     name rclavicle
     direction -0.899388 0.348209 -0.264294   
     length 3.68366  
     axis 0 0 0   XYZ 
    dof ry rz
    limits (-10.0 20.0)
           (-20.0 0.0)
  end
  begin
     id 25 
     name rhumerus
     direction -1 -4.48965e-011 -3.01536e-027  
     length 4.90577   
     axis 180 30 90   XYZ
    dof rx ry rz
    limits (-90.0 60.0)
           (-90.0 90.0)
           (-90.0 90.0)
  end
  begin
     id 26 
     name rradius
     direction -1 -4.48966e-011 3.93291e-027   
     length 3.42692   
     axis -180 30 90   XYZ
    dof rx
    limits (-10.0 170.0)
  end
  begin
     id 27 
     name rwrist
     direction -1 -4.48969e-011 -7.78665e-028   
     length 1.71346   
     axis 1.91374e-015 -90 -90   XYZ
    dof ry
    limits (-180.0 0.0)
  end
  begin
     id 28
     name rhand
     direction -1 -4.48967e-011 -1.55733e-027   
     length 0.740957   
     axis 9.9371e-016 -90 -90   XYZ
    dof rx rz
    limits (-90.0 90.0)
           (-45.0 45.0)
  end
  begin
     id 29
     name rfingers
     direction -1 -4.48949e-011 -3.11466e-027   
     length 0.597378   
     axis 1.98742e-015 -90 -90   XYZ
    dof rx
    limits (0.0 90.0)
  end
  begin
     id 30
     name rthumb
     direction -0.707107 -6.34931e-011 0.707107   
     length 0.857719   
     axis -90 -45 -2.85299e-015   XYZ
    dof rx rz
    limits (-45.0 45.0)
           (-45.0 45.0)
  end
:hierarchy
  begin
    root lhipjoint rhipjoint lowerback
    lhipjoint lfemur
    lfemur ltibia
    ltibia lfoot
    lfoot ltoes
    rhipjoint rfemur
    rfemur rtibia
    rtibia rfoot
    rfoot rtoes
    lowerback upperback
    upperback thorax
    thorax lowerneck lclavicle rclavicle
    lowerneck upperneck
    upperneck head
    lclavicle lhumerus
    lhumerus lradius
    lradius lwrist
    lwrist lhand lthumb
    lhand lfingers
    rclavicle rhumerus
    rhumerus rradius
    rradius rwrist
    rwrist rhand rthumb
    rhand rfingers
  end

#!OML:ASF E:\I on waltz\AllaLogoMonkeySwing\Project 1\Capture day 1\Session 1\Subject1.ASF
:FULLY-SPECIFIED
:DEGREES
96
root 2.88052 22.6754 2.60353 -3.34351 39.4596 1.08067
lowerback 6.85398 -1.00682 -3.89174
upperback -3.48529 -1.65053 1.19309
thorax -7.37483 -0.5821 3.66072
lowerneck -7.76946 -0.39074 -1.88521
upperneck 17.4571 -0.064511 -0.592422
head 6.59219 -0.164957 0.123086
rclavicle -7.56873e-014 -2.5842e-015
rhumerus 38.0662 -5.46336 -43.1967
rradius 57.7759
rwrist 6.14396
rhand -8.53247 -32.0181
rfingers 7.12502
rthumb 17.3964 -61.2596
lclavicle -7.56873e-014 -2.5842e-015
lhumerus 10.5489 5.62285 42.0229
lradius 83.4342
lwrist 5.39311
lhand -17.4298 -24.5248
lfingers 7.12502
lthumb 8.82065 5.27084
rfemur -6.45066 -2.05197 18.6109
rtibia 63.3706
rfoot 31.8101 -11.4593
rtoes 34.1361
lfemur 1.67027 7.89636 -16.319
ltibia 66.5028
lfoot 14.201 -20.9156
ltoes -38.4838
97
root 3.22115 23.0409 3.17064 -4.40312 39.3192 0.798863
lowerback 7.44221 -0.932425 -3.73546
upperback -3.00095 -1.55716 1.13378
thorax -7.20967 -0.558531 3.50549
lowerneck -7.72111 -0.366825 -1.58503
upperneck 18.0183 -0.00855542 -0.887965
head 6.76281 -0.143634 -0.0169151
rclavicle 6.67668e-014 9.14409e-015
rhumerus 37.2564 -2.83125 -43.9517
rradius 55.4704
rwrist 7.34528
rhand -9.46335 -32.9643
rfingers 7.12502
rthumb 16.5004 -62.2826
lclavicle 6.67668e-014 9.14409e-015
lhumerus 8.06859 5.62821 45.3605
lradius 82.3409
lwrist 5.44333
lhand -17.7452 -22.7038
lfingers 7.12502
lthumb 8.5162 7.10445
rfemur -7.7125 -4.14954 18.5778
rtibia 67.8036
rfoot 30.532 -12.3576
rtoes 32.2837
lfemur -0.536643 7.89685 -16.3875
ltibia 68.4012
lfoot 11.2053 -18.4704
ltoes -38.4931
98
root 3.56546 23.3559 3.71405 -5.17316 39.0443 0.624403
lowerback 7.97417 -0.784011 -3.43031
upperback -2.50505 -1.34787 1.02095
thorax -7.01276 -0.485492 3.19144
lowerneck -8.82486 0.103361 -1.60349
upperneck 19.4467 0.706898 -0.914427
head 7.42009 0.185881 0.03922
rclavicle 2.16178e-014 -8.94531e-015
rhumerus 36.2107 0.101261 -44.2297
rradius 53.5474
rwrist 7.63356
rhand -13.9657 -34.1402
rfingers 7.12502
rthumb 12.1622 -63.7667
lclavicle 2.16178e-014 -8.94531e-015
lhumerus 5.62724 5.68122 48.742
lradius 81.1089
lwrist 5.00303
lhand -18.0975 -21.8534
lfingers 7.12502
lthumb 8.17624 7.96839
rfemur -9.31871 -5.95852 18.4048
rtibia 71.4853
rfoot 28.9024 -11.0919
rtoes 28.142
lfemur -2.99278 7.93467 -16.7174
ltibia 69.7233
lfoot 9.11462 -16.1912
ltoes -38.761
99
root 3.90948 23.6205 4.23665 -6.19322 38.4395 -0.0642613
lowerback 8.69487 -0.610126 -2.50371
upperback -2.02989 -1.0333 0.964286
thorax -6.95908 -0.379529 2.57396
lowerneck -8.65025 0.553978 -1.02537
upperneck 18.854 1.4175 -1.94452
head 7.20541 0.481783 -0.330323
rclavicle -4.3012e-014 -2.18663e-015
rhumerus 35.0808 3.43733 -44.3342
rradius 51.9424
rwrist 7.10467
rhand -12.427 -33.5903
rfingers 7.12502
rthumb 13.6454 -63.123
lclavicle -4.3012e-014 -2.18663e-015
lhumerus 2.84281 5.46126 51.7286
lradius 80.0625
lwrist 5.11288
lhand -18.5062 -21.9427
lfingers 7.12502
lthumb 7.7818 7.8941
rfemur -11.3083 -7.11217 18.7646
rtibia 74.4694
rfoot 27.5754 -11.3982
rtoes 29.5346
lfemur -5.37835 8.09106 -16.599
ltibia 70.335
lfoot 7.8747 -14.5952
ltoes -38.6233
100
root 4.24914 23.8374 4.75236 -7.10356 37.6362 0.0125
lowerback 10.0538 -0.321491 -2.19591
upperback -1.44526 -0.65146 0.749894
thorax -7.14325 -0.212444 2.1329
lowerneck -8.18345 0.976839 -0.948437
upperneck 17.5219 1.93378 -1.95934
head 6.69616 0.74826 -0.308091
rclavicle -1.13059e-015 -1.41137e-014
rhumerus 34.0023 6.88655 -44.5011
rradius 50.5594
rwrist 5.99991
rhand -10.8837 -32.9487
rfingers 7.12502
rthumb 15.1325 -62.3754
lclavicle -1.13059e-015 -1.41137e-014
lhumerus 0.112574 5.07678 54.669
lradius 78.7074
lwrist 5.58562
lhand -18.0357 -23.3323
lfingers 7.12502
lthumb 8.23591 6.48715
rfemur -13.0286 -7.87575 18.5044
rtibia 76.7647
rfoot 26.2017 -10.8474
rtoes 31.0754
lfemur -7.18423 8.17756 -16.9639
ltibia 70.3691
lfoot 6.86773 -13.5981
ltoes -37.9651
101
root 4.59677 24.0141 5.26854 -8.06644 36.6318 -0.269756
lowerback 11.3802 -0.150817 -1.67075
upperback -0.906758 -0.371093 0.777008
thorax -7.34228 -0.0966631 1.82946
lowerneck -7.84856 1.40038 -0.455334
upperneck 16.0621 2.57381 -3.09044
head 6.19836 1.01605 -0.703956
rclavicle 1.17072e-013 4.67144e-015
rhumerus 33.4656 10.7608 -44.628
rradius 48.5995
rwrist 4.33621
rhand -10.3342 -31.3334
rfingers 7.12502
rthumb 15.6618 -60.7195
lclavicle 1.17072e-013 4.67144e-015
lhumerus -2.75064 5.24279 57.6658
lradius 76.8114
lwrist 5.09552
lhand -18.7978 -23.9885
lfingers 7.12502
lthumb 7.50035 5.85855
rfemur -14.9148 -8.36408 18.7006
rtibia 78.3048
rfoot 25.1531 -9.52317
rtoes 28.6435
lfemur -8.95519 8.19805 -16.9124
ltibia 69.8649
lfoot 5.78422 -13.2687
ltoes -37.6691
102
root 4.94186 24.138 5.78563 -9.03804 35.7729 -0.372965
lowerback 12.8079 0.0256846 -1.30402
upperback -0.25935 -0.101601 0.689709
thorax -7.47217 0.0175719 1.48754
lowerneck -6.01339 1.73087 -0.393422
upperneck 13.0319 2.89819 -3.37479
head 4.9468 1.21646 -0.802445
rclavicle 1.00026e-013 -5.1684e-015
rhumerus 32.6859 14.5482 -45.0965
rradius 47.4166
rwrist 3.0651
rhand -8.88866 -31.7264
rfingers 7.12502
rthumb 17.0536 -60.9979
lclavicle 1.00026e-013 -5.1684e-015
lhumerus -5.25277 5.42397 60.4121
lradius 74.5152
lwrist 3.61001
lhand -18.9384 -24.2575
lfingers 7.12502
lthumb 7.36466 5.59428
rfemur -16.6219 -8.8583 18.7956
rtibia 79.1373
rfoot 24.5778 -9.02197
rtoes 28.6377
lfemur -10.4125 7.75948 -16.9663
ltibia 68.6916
lfoot 5.17699 -12.7914
ltoes -36.8645
103
root 5.28528 24.2199 6.31208 -9.81979 35.0642 -0.361874
lowerback 13.9873 0.163784 -1.23073
upperback 0.404817 0.0842719 0.637121
thorax -7.43145 0.102671 1.35603
lowerneck -4.98925 2.06799 -0.357538
upperneck 11.1178 3.26935 -3.46675
head 4.64422 1.44059 -0.928083
rclavicle 5.03795e-015 -7.05686e-015
rhumerus 32.2184 18.8022 -45.1848
rradius 46.6079
rwrist 0.84862
rhand -7.82835 -33.4018
rfingers 7.12502
rthumb 18.074 -62.5821
lclavicle 5.03795e-015 -7.05686e-015
lhumerus -7.76304 5.14872 62.9216
lradius 72.2261
lwrist 3.55679
lhand -18.8749 -23.2718
lfingers 7.12502
lthumb 7.4259 6.57789
rfemur -18.3216 -9.37018 18.9199
rtibia 79.216
rfoot 23.5874 -8.39328
rtoes 28.252
lfemur -11.7194 7.06573 -17.0935
ltibia 66.9917
lfoot 4.514 -12.0301
ltoes -36.8594
104
root 5.63183 24.2526 6.84571 -10.3839 34.467 -0.24851
lowerback 14.9263 0.257904 -1.36758
upperback 1.00381 0.184226 0.635259
thorax -7.31791 0.154264 1.41139
lowerneck -3.83439 2.41612 -0.252327
upperneck 9.61511 3.66906 -3.687
head 3.88729 1.66487 -1.00887
rclavicle 5.80389e-014 -1.42131e-014
rhumerus 31.8253 22.6213 -45.5927
rradius 45.2186
rwrist 0.0153474
rhand -6.2606 -33.1899
rfingers 7.12502
rthumb 19.5818 -62.2238
lclavicle 5.80389e-014 -1.42131e-014
lhumerus -10.2921 4.68201 65.2079
lradius 69.5848
lwrist 4.32359
lhand -18.725 -22.8493
lfingers 7.12502
lthumb 7.57059 6.99525
rfemur -20.0387 -9.88598 19.0377
rtibia 78.6411
rfoot 22.6812 -7.37517
rtoes 25.8593
lfemur -12.9771 6.23296 -17.2765
ltibia 64.723
lfoot 4.01795 -11.3616
ltoes -37.3387
